<?xml version="1.0" encoding="utf-8"?>
<!-- Generator: Adobe Illustrator 19.2.0, SVG Export Plug-In . SVG Version: 6.00 Build 0)  -->
<svg version="1.1" id="Layer_1" xmlns="http://www.w3.org/2000/svg" xmlns:xlink="http://www.w3.org/1999/xlink" x="0px" y="0px"
	 viewBox="0 0 999 229.8" style="enable-background:new 0 0 999 229.8;" xml:space="preserve">
<style type="text/css">
	.st0{fill-rule:evenodd;clip-rule:evenodd;}
</style>
<path d="M12,94.1c0,0,11-15.8,36-25c12.2-3.5,22.5-6.5,25,0c2.5,5.5,4.5,9.5,8,12s4.8,8.5,3,22c-1.5,10-2.2,12.2-4,12s-4.2-7-5-10
	s2-6.5-10-3s-30.8,15-32,23s-0.2,9,10,14s28.8,6.5,34,17s3.2,19.2-18,27s-33.5,13.8-50,0c-3.5-2.5-5-5.2,3-5s24.2-8.8,30-13
	s2.5-4.5-2-6s-39.5-10.2-40-29S6,100.6,12,94.1z"/>
<path class="st0" d="M94.2,125.4c0,0,12.6-1.6,17-4c4.4-2.4,9.7-1.9,8,3c-1.7,4.9-10,29.7-11,35c-1,5.3-0.6,10,6,2s13.6-17.1,16-20
	c2.4-2.9,3.1-4.1,12-5c6.1-0.6,6.1-1.9,6,6s-1,45.7-1,51c0,5.3-2.4,7.7-9,3c-4.1-2.7-14-6.9-15-13c-0.7-2.1-1.6-8.9-7-5
	s-17.3,10-27,6c-3.3-1.6-6.1-10.3-6-18c0.1-7.7,4.3-28.3,6-34C91,126.7,91.4,126,94.2,125.4z"/>
<path class="st0" d="M171.8,126.4c5-2.9,12.4-5.3,16-7c3.6-1.7,4.6-2.3,8,1c3.4,3.3,6.7,5.3,1,9c-5.7,3.7-12.3,7.9-14,10
	c-1.7,2.1-2,5.4,1,8c3,2.6,9.1,5.9,12,9s3.3,10.9-1,17c-4.3,6.1-16,15.6-22,19c-6,3.4-10.4,8.4-10-1c0.1-3.9,3.7-5.9,6-8
	c2.3-2.1,7.1-5.6,2-9c-2.9-1-12.9-2.1-15-12c-2.1-9.9-5.1-21,0-25C161,133.4,166.8,129.3,171.8,126.4z"/>
<path class="st0" d="M233.4,100.8c0,0,10-18.4,13-22s6.4-9.4,14-9s12.4,0.4,7,15s-12.8,26.8-19,37c-6.2,10.2-15.4,34.8-9,26
	c6.4-8.8,12.2-18.2,16-21c3.8-2.8,13-7,16,1s9.2,35.6,10,44c0.8,8.4,0.6,15.6-4,18c-4.6,2.4-12.8,6.8-16,0c-3.2-6.8-11.8-20.6-14-23
	c-2.2-2.4-4-6.4-10,0c-6,6.4-15,18.6-17,22c-2,3.4-9.4,10.2-12-2c-2.6-12.2-2.2-31.6,0-41C212.4,128.6,231.8,104,233.4,100.8z"/>
<g>
	<g>
		<path class="st0" d="M309.1,126.7c-5.4,3.2-12,13-12,13c-2,2.8-8,7.6-10,16c-2,8.4,0.6,11.8,5,13c4.4,1.2,4.8,2.4,7,11
			c2.2,8.6,11.2,14.8,19,14s6-15,8-27s4.4-32.8,4-43C329.7,113.5,314.5,123.5,309.1,126.7z M333.1,77.7c-1.8-4.2-14.6,1.6-19,4
			c-4.4,2.4-8.5,9.3-12,14c-4.6,6.2,1.4,8.2,5,10c3.6,1.8,5,3.4,10,0c5-3.4,17.8-15.4,19-18C337.3,85.1,334.9,81.9,333.1,77.7z"/>
	</g>
</g>
<g>
	<g>
		<path class="st0" d="M632.2,126.7c-5.4,3.2-12,13-12,13c-2,2.8-8,7.6-10,16c-2,8.4,0.6,11.8,5,13c4.4,1.2,4.8,2.4,7,11
			c2.2,8.6,11.2,14.8,19,14s6-15,8-27s4.4-32.8,4-43C652.8,113.5,637.6,123.5,632.2,126.7z M656.2,77.7c-1.8-4.2-14.6,1.6-19,4
			c-4.4,2.4-8.5,9.3-12,14c-4.6,6.2,1.4,8.2,5,10c3.6,1.8,5,3.4,10,0c5-3.4,17.8-15.4,19-18C660.4,85.1,658,81.9,656.2,77.7z"/>
	</g>
</g>
<g>
	<g>
		<path class="st0" d="M915.1,127.1c-5.4,3.2-12,13-12,13c-2,2.8-8,7.6-10,16c-2,8.4,0.6,11.8,5,13c4.4,1.2,4.8,2.4,7,11
			c2.2,8.6,11.2,14.8,19,14s6-15,8-27s4.4-32.8,4-43C935.7,113.9,920.5,123.9,915.1,127.1z M939.1,78.1c-1.8-4.2-14.6,1.6-19,4
			c-4.4,2.4-8.5,9.3-12,14c-4.6,6.2,1.4,8.2,5,10c3.6,1.8,5,3.4,10,0c5-3.4,17.8-15.4,19-18C943.3,85.5,940.9,82.3,939.1,78.1z"/>
	</g>
</g>
<path class="st0" d="M417.5,100.4c-3.7-0.5-10.8-0.2-2-5s45-20.2,62-24s17.5-2.8,17,7s-1.5,22.2-15,26s-45.8,15.8-56,25
	s-22.5,18.8-9,22s40,3.8,66-1c11-2,14.8-5.2,14,3s-4.8,10-10,13s-8.8,3.8-9,11s0.8,9.2-13,13s-46.2,4.8-54,3s-11-2.2-16-22
	s-7-37.5-1-44c6-6.5,16.8-14.8,25-20S423.2,101.1,417.5,100.4z"/>
<g>
	<g>
		<path class="st0" d="M556.5,195.3c-0.4-2.3-2-9.3-3-17s2.4-25.4,3-33s-8.6-13.7-12-17c-3.4-3.3-5.3-2.7-6-2s-2.9,3.9-4,2
			c-1.1-1.9-2-3-4-2s-5,4-5,4c-2.1,1.9-9,10-9,10s-3.3,3.7-7,9c-8.4,11.9-10.3,24.6-10,36s5,10.6,8,9s10-7,10-7
			c1.4-0.9,7.7-5.9,11-8.4c5-3.3,5.5-1,7,2.4c5.4,12.3,8.3,15.1,15,17C557.2,200.1,557,197.6,556.5,195.3z M516.5,161.3
			c1.1-3.1,5-9,5-9c2.7-3.4,2.9,2,3,4c0.1,1.1-2,3.4-4,5.3c-0.8,0.7-1.5,1.3-2,1.7C516.5,165,515.4,164.4,516.5,161.3z"/>
	</g>
</g>
<g>
	<g>
		<path class="st0" d="M998.9,195.3c-0.4-2.3-2-9.3-3-17s2.4-25.4,3-33s-8.6-13.7-12-17c-3.4-3.3-5.3-2.7-6-2s-2.9,3.9-4,2
			c-1.1-1.9-2-3-4-2s-5,4-5,4c-2.1,1.9-9,10-9,10s-3.3,3.7-7,9c-8.4,11.9-10.3,24.6-10,36s5,10.6,8,9s10-7,10-7
			c1.4-0.9,7.7-5.9,11-8.4c5-3.3,5.5-1,7,2.4c5.4,12.3,8.3,15.1,15,17C999.6,200.1,999.3,197.6,998.9,195.3z M958.9,161.3
			c1.1-3.1,5-9,5-9c2.7-3.4,2.9,2,3,4c0.1,1.1-2,3.4-4,5.3c-0.8,0.7-1.5,1.3-2,1.7C958.9,165,957.7,164.4,958.9,161.3z"/>
	</g>
</g>
<path class="st0" d="M562.5,32c0,0,3.6,1.1-3,2c-5.8,0.8-18,4.2-22,25c-3.6,20-4.2,38-4,42s1.2,11.2,3,1s8-32.4,13-42
	s9.6-16.6,17-20c0.6,2.6,1.8,3.2,4,4c-2,4.6-9.6,21.2-10,54c-0.4,32.8,4,101,4,101h42c0,0-21.4-52.2-30-101c-0.8-4.6-3.4-43.8,6-52
	c3.6,0.8,7.2,1.4,9-3c6,5.2,17.8,10.4,25,47c0.6,5,2.4,11.6,3-1c0.6-12.6,0.8-47.4-22-54c-3-0.6-5.2-2.8,2-2s24.4,4,40,13
	c15.6,9,15.2,8.4,18,10c2.8,1.6,7.6,3.2,2-2c-5.6-5.2-17.2-16.8-37-23c-11.6-3.4-15.2-4-18-4s-7-0.6,0-2s17.2-3.6,34-1
	c6.8,1.4,10.4,3.4,13,5c2.6,1.6,6.8,2.2,1-3s-17-12.2-31-12s-22,4.2-28,8c-3.4,2-6.6,3-4-1c2.6-4,9.2-10.6,17-13c5.8-2,6.8-5.4,2-5
	s-16.8,6.2-21,12c-2,3.2-2.8,2.8-2-1s0-9.6-2-12s-3.4-3-3,0c0.4,3,0.2,11.4-1,16s-2.6,5.8-3,1c-0.4-4.8-6-10.8-9-12s-5.6-0.8-3,2
	c2.6,2.8,4.4,5.6,6,9c1.6,3.4,2,4.6-1,2s-8.4-10-24-9c-15.6,1-17.8,4.2-20,6s-5.6,5.4,0,4c5.6-1.4,16.2-3.6,22-3s10.6,1.8,13,3
	c2.4,1.2,6.8,3.8,0,3c-6.8-0.8-20.4-0.2-32,8c-11.6,8.2-18.4,15.6-21,19c-2.6,3.4-4.2,8,1,4c5.2-4,14-11.6,24-16
	S549.7,31.4,562.5,32z"/>
<g>
	<g>
		<path class="st0" d="M706.7,102.1c2.8-7.5,2.2-13.8,2-22s-6-6.5-9-3s-7,8.8-11,16s-11,22-11,22s-5,8.2-11,22s-9,30-9,30v7
			c0,0-1.1,18.9,5,31c4.2,8.4,11.6,22.4,15,24s9.8,0.5,16-5c3-3.4,3.1-6.2,3-15s-0.6-19-1-26c-0.3-6.2-0.7-12.2-0.2-17.2
			c1.1-3,3.1-5.7,4.2-9.8c1.5-8-2-8-5-9s-2-9.5-1-15S703.9,109.6,706.7,102.1z M688.7,181.1c-0.2,7-0.6,20.9-1,24s-2.9,4.9-3,1
			s-3.2-13-3-18s2.2-10.5,4-13c0,0,0.9-1.9,2-1c0.1,0.1,0.1,0.1,0.2,0.1C688.2,174.6,688.9,175.9,688.7,181.1z"/>
	</g>
</g>
<g>
	<g>
		<path class="st0" d="M752.3,132.6c-6.6-6-15-8.6-21-10s-9.1,0.6-13,4s-11,10-11,10c-2.5,3.1-2,28-2,28s-0.9,7.7-1,9
			c-0.2,1.9-1.6,21.3,7,21c6.8-0.2,19.4-0.7,27-13c1.5-2.8,2.8-5.2,3.9-7.1c0,0,0.1,0.1,0.1,0.1c5.1-8,10.8-20.4,14-28
			S755.9,136.6,752.3,132.6z M723.3,166.6c-2.6-0.7-3.4-1.9-4-4c-0.9-3.1-1.4-6.5,0-11s8.2,1,11,3s3.2,3.4,2,5s-3,4-3,4
			S725.9,167.3,723.3,166.6z"/>
	</g>
</g>
<path class="st0" d="M763,140.8c0,0-1.6-7,0-15c1-3.8,3.8-4.4,11-2c7.2,2.4,31.2,8.4,32,17c0.8,8.6,2.6,24.2-3,28
	c-5.6,3.8-11.2,7-13,8c-1.8,1-2,3.2,1,7s0.2,5.8-9,8c-9.2,2.2-22.4,4.2-18-9c4.4-13.2,14.8-22.8,16-24c1.2-1.2,2.8-4.2-4-7
	C769.2,149,763.4,145.1,763,140.8z"/>
<path class="st0" d="M818.1,141.9c0,0-0.2-7.2,0-12s2.6-11.2,13-11c10.4,0.2,14.2,4,14,11s-3,12.4,7,10c10-2.4,32.8-7.2,34,5
	s2.6,42.8,0,46s-24,10.2-27,2s1.8-18-6-25s-11,1.2-13,6s-3.2,16.8-19,12c-6-1.6-8.2,0.6-7-10C815.3,165.3,818.1,145.2,818.1,141.9z"
	/>
</svg>
